
<svg xmlns="http://www.w3.org/2000/svg" width="123" height="32" fill="none" viewBox="0 0 123 28"><path fill="#F0F2F5" d="M19.862 13.998c-.495 2.796-1.216 4.235-4.876 4.235h-.082l3.845 5.208c.175.228 0 .549-.268.549h-4.536c-.464 0-.67-.094-.886-.425l-3.34-5.084H5.874l-.866 4.97c-.051.352-.288.549-.67.549H.504c-.371 0-.547-.197-.495-.549L2.885 7.082c.082-.352.299-.549.67-.549h13.503c2.454 0 3.536.85 3.536 2.796 0 .373-.031.776-.093 1.2L19.872 14h-.01ZM7.214 10.551l-.69 4.017h6.597c1.432 0 1.69-.321 1.906-1.522l.176-1.067c.051-.28.082-.497.082-.673 0-.631-.35-.745-1.463-.745H7.214zm27.594 10.478h-8.35l-1.36 2.443c-.176.352-.454.518-.866.518h-4.216c-.32 0-.454-.249-.247-.57l9.658-16.359c.196-.352.464-.517.917-.517h5.65c.422 0 .628.176.69.517l3.958 16.36c.052.32-.124.569-.423.569h-4.185c-.453 0-.639-.176-.721-.518l-.516-2.444h.01Zm-6.144-3.914h5.309l-1.495-6.554-3.804 6.554zm18.976 6.336c-.051.352-.288.549-.67.549h-3.844c-.371 0-.547-.197-.495-.549l2.876-16.359c.082-.352.299-.548.67-.548h3.845c.37 0 .567.196.495.548zm23.504-9.536c.444 0 .547.208.464.632l-1.556 8.894c-.052.352-.268.549-.64.549h-6.287c-.402 0-.64-.125-.722-.456L57.971 10.52l-2.278 12.91c-.052.353-.289.55-.64.55H51.58c-.371 0-.547-.197-.495-.55l2.876-16.358c.082-.352.299-.539.67-.539h6.288c.402 0 .629.114.721.446l4.505 13.252 1.03-5.808c.073-.332.228-.508.557-.508h3.423zm12.101.011c-.176 0-.34.02-.505.052-.526.113-.928.559-1.02 1.097l-.867 4.928a6.3 6.3 0 0 0-.123 1.201c0 1.947 1.164 2.796 3.587 2.796h10.256c3.793 0 4.216-.973 4.732-3.914l1.01-5.736c.082-.352-.093-.424-.464-.424h-8.937c-.371 0-.598.197-.67.549l-.382 2.091c-.082.352.093.549.464.549h4.484l-.37 2.102c-.083.517-.372.776-.95.776h-5.73c-1.289 0-1.68-.103-1.68-.88 0-.176.03-.404.082-.673l.598-3.469c.082-.517-.34-1.045-.866-1.045h-2.65Zm5.001-7.051a.39.39 0 0 1 .382-.32h9.01c2.504 0 3.741.444 3.514 2.401l-.093 1.015a.663.663 0 0 1-.67.59H88.061a.39.39 0 0 1-.381-.456zm34.645 3.085a.67.67 0 0 1-.67.6h-10.927c-1.608 0-1.958.25-2.206 1.595l-1.092 6.233c-.052.28-.083.497-.083.673 0 .777.423.922 1.711.922h5.701c.567 0 .866-.249.948-.777l.381-2.102h-4.473c-.371 0-.547-.196-.464-.548l.361-2.113c.082-.351.299-.548.67-.548h8.926c.372 0 .547.197.464.549l-1 5.632c-.515 2.94-.948 3.914-4.731 3.914h-10.256c-2.433 0-3.588-.85-3.588-2.796 0-.373.052-.776.124-1.2l1.67-9.474c.464-2.786 1.227-3.987 4.845-3.987h10.256c2.505 0 3.742.57 3.515 2.527l-.093.89z"></path><path fill="#F6AF16" d="M70.721 9.701c-.464-.062-.907-.486-.814-.962l.103-.446c.02-.093.062-.259.113-.331.134-.217.34-.321.64-.352l2.36-.352c4.072-.3 3.639-2.288 4.237-3.82L78.298.6c.082-.384.32-.601.731-.601h.712c.412 0 .629.217.546.6l-.165 2.89c-.206 2.277.02 3.302 2.36 3.623l2.567.518s.722.114.619.755l-.155.725a.634.634 0 0 1-.629.528l-2.515.321c-2.37.218-3.01-.03-3.793 2.879l-1.01 3.634c-.052.383-.32.6-.732.6h-1c-.412 0-.608-.217-.546-.6l.288-3.541c.124-2.268-.68-2.599-2.649-2.868l-2.216-.373.01.01Z"></path></svg>